<svg width="40" height="40" viewBox="0 0 40 40" fill="none" xmlns="http://www.w3.org/2000/svg">
<circle cx="20" cy="20" r="20" fill="url(#paint0_linear_2675_24)"/>
<path d="M28.8335 13.4993C28.0935 14.0213 27.2742 14.4205 26.4071 14.6816C25.9418 14.1465 25.3233 13.7672 24.6353 13.5951C23.9473 13.423 23.2231 13.4663 22.5606 13.7192C21.898 13.972 21.3291 14.4223 20.9308 15.009C20.5325 15.5958 20.324 16.2907 20.3335 16.9998V17.7725C18.9755 17.8077 17.6299 17.5066 16.4165 16.8958C15.2032 16.2851 14.1597 15.3837 13.379 14.2721C13.379 14.2721 10.288 21.2266 17.2426 24.3175C15.6512 25.3978 13.7554 25.9394 11.8335 25.863C18.788 29.7266 27.288 25.863 27.288 16.9766C27.2873 16.7614 27.2666 16.5467 27.2262 16.3353C28.0149 15.5575 28.5714 14.5755 28.8335 13.4993Z" fill="white"/>
<defs>
<linearGradient id="paint0_linear_2675_24" x1="-0.796875" y1="14.4443" x2="35.7839" y2="14.4619" gradientUnits="userSpaceOnUse">
<stop stop-color="#00C5EB"/>
<stop offset="1" stop-color="#B544FE"/>
</linearGradient>
</defs>
</svg>
